<svg viewBox="0 0 500 500" width="1em">
  <path style="stroke-linejoin: round; stroke: rgb(250, 123, 1); fill: rgb(250, 123, 1);" d="M 249.834 473.944 C 422.227 473.944 529.973 287.328 443.777 138.034 C 357.58 -11.269 142.085 -11.269 55.892 138.034 C 9.891 217.703 17.299 317.408 74.57 389.405 C 138.488 469.765 265.434 450.791 303.064 355.259 C 324.157 301.702 308.52 240.648 264.267 203.833 C 232.618 177.501 184.328 195.308 177.351 235.881 C 175.219 248.274 177.52 261.018 183.85 271.879 C 198.17 296.463 180.514 327.326 152.063 327.439 C 138.821 327.49 126.193 320.66 119.932 308.991 C 62.366 201.669 147.723 87.694 274.408 100.97 C 401.1 114.243 442.972 262.559 400.839 349.234 C 374.136 404.168 328.707 447.254 249.834 473.944 Z"></path>
</svg>