<svg viewBox="0 0 500 500" height="1em">
  <g>
    <path style="fill: rgb(255, 230, 192);" d="M 53.954 173.971 L 54.253 201.134 L 58.225 347.294 L 164.619 420.951 L 426.509 417.444 L 425.927 198.248 L 471.256 229.645 L 424.171 154.383 L 323.624 76.05 L 61.734 76.05 L 12.628 142.693 L 53.954 173.971 Z"></path>
    <path style="fill: rgb(204, 168, 113);" d="M 320.437 76.343 L 416.196 152.86 L 164.196 154.235 L 72.102 83.675 L 320.437 76.343 Z M 431.946 171.712 L 459.621 221.98 L 421.591 195.246 L 431.946 171.712 Z"></path>
    <path style="stroke-linejoin: round; stroke: rgb(250, 123, 1); fill: rgb(250, 123, 1);" d="M 293.447 359.072 C 348.271 359.072 382.536 299.725 355.124 252.247 C 327.712 204.766 259.181 204.766 231.77 252.247 C 217.141 277.583 219.497 309.291 237.71 332.187 C 258.037 357.743 298.408 351.709 310.375 321.328 C 317.083 304.296 312.11 284.88 298.037 273.172 C 287.972 264.798 272.615 270.461 270.396 283.364 C 269.718 287.305 270.45 291.358 272.463 294.812 C 277.017 302.63 271.402 312.445 262.354 312.481 C 258.143 312.497 254.127 310.325 252.136 306.614 C 233.829 272.484 260.974 236.238 301.262 240.46 C 341.552 244.681 354.868 291.848 341.469 319.412 C 332.977 336.882 318.53 350.584 293.447 359.072 Z"></path>
    <path d="M 319.568 85.85 C 307.177 85.841 256.346 85.804 190.715 85.758 C 157.898 85.734 125.081 85.709 100.47 85.691 C 93.47 85.685 87.134 85.68 81.65 85.676 L 164.468 147.202 C 164.912 147.302 165.351 147.443 165.779 147.63 L 403.029 147.413 L 319.568 85.85 Z M 59.652 70.988 C 59.779 70.988 59.966 70.991 60.213 70.991 C 60.709 70.991 61.447 70.992 62.408 70.992 C 64.33 70.993 67.151 70.995 70.74 70.998 C 77.918 71.003 88.174 71.011 100.48 71.021 C 125.092 71.039 157.908 71.063 190.725 71.087 C 256.356 71.134 321.989 71.182 321.989 71.182 L 324.398 71.183 L 429.496 148.706 C 429.576 148.761 429.653 148.818 429.73 148.877 C 430.17 149.208 430.576 149.594 430.941 150.031 C 431.146 150.277 431.336 150.537 431.508 150.809 L 494.439 247.038 L 433.957 203.88 C 433.855 203.867 433.84 188.198 433.853 188.288 C 433.864 188.377 442.874 193.846 442.879 193.859 L 432.616 179.306 L 432.356 428.069 L 169.857 429.012 L 161.064 428.87 L 52.246 349.3 L 53.926 181.143 C 53.974 180.679 68.522 191.803 68.537 191.787 L 66.948 341.927 L 155.189 407.199 L 155.213 178.574 L 121.377 228.136 L 5.561 143.394 L 53.422 74.153 C 54.869 72.059 57.209 70.951 59.576 70.988 C 59.599 70.988 59.624 70.988 59.652 70.988 Z M 417.702 413.453 L 417.964 162.069 L 169.885 162.295 L 169.859 414.342 L 417.702 413.453 Z M 25.75 139.988 L 117.809 207.349 L 152.474 156.567 L 61.173 88.738 L 25.75 139.988 Z" style=""></path>
  </g>
</svg>